<svg xmlns="http://www.w3.org/2000/svg" xmlns:xlink="http://www.w3.org/1999/xlink" width="75" height="51" version="1.1" viewBox="0 0 75 51"><title>Group 10</title><desc>Created with Sketch.</desc><g id="Page-1" fill="none" fill-rule="evenodd" stroke="none" stroke-width="1"><g id="Ambassador-Features" transform="translate(-1056.000000, -2485.000000)"><g id="Group-10" transform="translate(1057.000000, 2485.000000)"><polygon id="Path-2-Copy" fill="#FFEEEB" points="1 20.941 17.887 20.941 17.887 39.02 27.434 39.02 27.434 16 39.383 16 39.383 27.51 51.852 27.51 51.852 39.02 60.527 39.02 60.527 20.941 73.625 20.941 73.625 50.293 1 50.293"/><polyline id="Path-2" stroke="#F9634E" stroke-width="2" points="1 19.941 17.887 19.941 17.887 38.02 27.434 38.02 27.434 15 39.383 15 39.383 26.51 51.852 26.51 51.852 38.02 60.527 38.02 60.527 19.941 73.625 19.941"/><path id="Line-3" stroke="#FA6B57" stroke-dasharray="5" stroke-linecap="square" stroke-width="2" d="M0.5,1.5 L72.5069441,1.5"/></g></g></g></svg>