<svg xmlns="http://www.w3.org/2000/svg" xmlns:xlink="http://www.w3.org/1999/xlink" width="95" height="43" version="1.1" viewBox="0 0 95 43"><title>noun_96239_cc</title><desc>Created with Sketch.</desc><g id="Page-1" fill="none" fill-rule="evenodd" stroke="none" stroke-width="1"><g id="Ambassador-Features" fill-rule="nonzero" transform="translate(-303.000000, -2172.000000)"><g id="noun_96239_cc" transform="translate(303.000000, 2173.000000)"><g id="Group"><path id="Shape" stroke="#F9634E" stroke-width="2.5" d="M78.3453119,36.5957031 C57.9994785,41.8808594 37.6585941,41.8808594 17.3177083,36.5957031 C27.2828119,25.8051758 27.2828119,15.019653 17.3177083,4.22912566 C37.6585941,-1.05603059 57.9994785,-1.05603059 78.3453119,4.22912566 C68.3752607,15.019653 68.3752607,25.8051758 78.3453119,36.5957031 Z"/><polygon id="Shape" fill="#F9634E" points="19.96 20.415 7.367 10.871 7.367 16.276 0 16.276 0 24.534 7.367 24.534 7.367 29.959"/><polygon id="Shape" fill="#F9634E" points="75.04 20.415 87.633 29.959 87.633 24.554 95 24.554 95 16.296 87.633 16.296 87.633 10.871"/></g></g></g></g></svg>