<svg xmlns="http://www.w3.org/2000/svg" xmlns:xlink="http://www.w3.org/1999/xlink" width="28" height="38" version="1.1" viewBox="0 0 28 38"><title>noun_897228_cc</title><desc>Created with Sketch.</desc><g id="Page-1" fill="none" fill-rule="evenodd" stroke="none" stroke-width="1"><g id="Ambassador" fill="#FFF" fill-rule="nonzero" transform="translate(-1093.000000, -584.000000)"><g id="noun_897228_cc" transform="translate(1093.000000, 584.000000)"><path id="Shape" d="M25.1369875,10.6934175 C25.1588945,5.41190321 21.2005273,0.912696808 15.8356302,0.121198026 C10.4707331,-0.670300756 5.32037356,2.48506886 3.73333333,7.53567452 L5.28244207,8.00144161 C6.6405931,3.71366081 11.0154687,1.03671581 15.5739832,1.70414503 C20.1324976,2.37157425 23.5046817,6.18279536 23.5067736,10.6697344 L23.5067736,17.4746706 L12.7441176,17.4746706 L12.7441176,19.0535421 L26.3778966,19.0535421 L26.3778966,36.4211285 L24.3259358,36.4211285 L24.3259358,38 L28,38 L28,17.4746706 L25.1369875,17.4746706 L25.1369875,10.6934175 Z"/><path id="Shape" d="M19.6,15.7560976 L19.6,11.3395872 C19.5782061,8.15750997 17.0837222,5.58346463 14,5.56097561 L14,7.2120075 C16.209139,7.2120075 18,9.0599879 18,11.3395872 L18,15.7560976 L19.6,15.7560976 Z"/><path id="Shape" d="M1.55880306,18.1274886 L9.35281837,18.1274886 L9.35281837,10.2430783 C9.34534203,8.87905896 10.0451653,7.60947249 11.2,6.89200814 L10.3738344,5.56097561 C8.75755039,6.56811334 7.78003691,8.3481318 7.79401531,10.2587375 L7.79401531,16.5772272 L4.31788448,16.5772272 L4.31788448,9.8124501 C4.3180475,9.4802466 4.33626063,9.14829965 4.37244259,8.8180905 L2.81363953,8.64583924 C2.77177447,9.03328291 2.75095956,9.42273069 2.7512874,9.8124501 L2.7512874,16.561568 L0,16.561568 L0,20.3902439 L1.55880306,20.3902439 L1.55880306,18.1274886 Z"/><polygon id="Shape" points="1.607 23.171 0 23.171 0 38 15.867 38 15.867 36.385 1.607 36.385"/><rect id="Rectangle-path" width="2.8" height="1.854" x="18.667" y="36.146"/></g></g></g></svg>