<svg xmlns="http://www.w3.org/2000/svg" xmlns:xlink="http://www.w3.org/1999/xlink" width="44" height="30" version="1.1" viewBox="0 0 44 30"><title>noun_858572_cc</title><desc>Created with Sketch.</desc><g id="Page-1" fill="none" fill-rule="evenodd" stroke="none" stroke-width="1"><g id="Ambassador" fill="#FFF" fill-rule="nonzero" stroke="#FFF" transform="translate(-698.000000, -590.000000)"><g id="noun_858572_cc" transform="translate(699.000000, 591.000000)"><path id="Shape" d="M28.2333333,0 L13.7666667,0 C6.20666667,0 0,6.31186441 0,14 L0,14 C0,21.6881356 6.20666667,28 13.7666667,28 L28.2333333,28 C35.7933333,28 42,21.6881356 42,14 L42,14 C42,6.31186441 35.7933333,0 28.2333333,0 Z M13.72,27.2881356 C6.48666667,27.2881356 0.653333333,21.3559322 0.653333333,14 C0.653333333,6.6440678 6.48666667,0.711864407 13.72,0.711864407 C20.9533333,0.711864407 26.7866667,6.6440678 26.7866667,14 C26.7866667,21.3559322 20.9533333,27.2881356 13.72,27.2881356 Z"/></g></g></g></svg>